<?xml version="1.0" encoding="UTF-8"?>
<!DOCTYPE svg
PUBLIC "-//W3C//DTD SVG 1.1//EN"
       "http://www.w3.org/Graphics/SVG/1.1/DTD/svg11.dtd">
<svg viewBox="115 25 1013 665" width="898px" height="640px" xmlns="http://www.w3.org/2000/svg" version="1.1">
   <rect width="108" height="20" x="880" y="90" style="fill:#007;stroke:black;"/>
   <text width="108" height="20" x="885" y="104" style="fill:#fff;" font-family="Arial" font-size="16px"> admin</text>
   <rect width="108" height="20" x="880" y="110" style="fill:#aea;stroke:black;"/>
   <text width="108" height="20" x="885" y="124" style="fill:black;" font-family="Arial" font-size="16px">id</text>
   <rect width="108" height="20" x="880" y="130" style="fill:none;stroke:black;"/>
   <text width="108" height="20" x="885" y="144" style="fill:black;" font-family="Arial" font-size="16px">username</text>
   <rect width="108" height="20" x="880" y="150" style="fill:none;stroke:black;"/>
   <text width="108" height="20" x="885" y="164" style="fill:black;" font-family="Arial" font-size="16px">email</text>
   <rect width="108" height="20" x="880" y="170" style="fill:none;stroke:black;"/>
   <text width="108" height="20" x="885" y="184" style="fill:black;" font-family="Arial" font-size="16px">password</text>
   <rect width="108" height="20" x="880" y="190" style="fill:none;stroke:black;"/>
   <text width="108" height="20" x="885" y="204" style="fill:black;" font-family="Arial" font-size="16px">reg_date</text>
   <rect width="108" height="20" x="880" y="210" style="fill:none;stroke:black;"/>
   <text width="108" height="20" x="885" y="224" style="fill:black;" font-family="Arial" font-size="16px">updation_date</text>
   <rect width="74" height="20" x="680" y="160" style="fill:#007;stroke:black;"/>
   <text width="74" height="20" x="685" y="174" style="fill:#fff;" font-family="Arial" font-size="16px"> adminlog</text>
   <rect width="74" height="20" x="680" y="180" style="fill:none;stroke:black;"/>
   <text width="74" height="20" x="685" y="194" style="fill:black;" font-family="Arial" font-size="16px">id</text>
   <rect width="74" height="20" x="680" y="200" style="fill:none;stroke:black;"/>
   <text width="74" height="20" x="685" y="214" style="fill:black;" font-family="Arial" font-size="16px">adminid</text>
   <rect width="74" height="20" x="680" y="220" style="fill:none;stroke:black;"/>
   <text width="74" height="20" x="685" y="234" style="fill:black;" font-family="Arial" font-size="16px">ip</text>
   <rect width="74" height="20" x="680" y="240" style="fill:none;stroke:black;"/>
   <text width="74" height="20" x="685" y="254" style="fill:black;" font-family="Arial" font-size="16px">logintime</text>
   <rect width="98" height="20" x="450" y="100" style="fill:#007;stroke:black;"/>
   <text width="98" height="20" x="455" y="114" style="fill:#fff;" font-family="Arial" font-size="16px"> courses</text>
   <rect width="98" height="20" x="450" y="120" style="fill:#aea;stroke:black;"/>
   <text width="98" height="20" x="455" y="134" style="fill:black;" font-family="Arial" font-size="16px">id</text>
   <rect width="98" height="20" x="450" y="140" style="fill:none;stroke:black;"/>
   <text width="98" height="20" x="455" y="154" style="fill:black;" font-family="Arial" font-size="16px">course_code</text>
   <rect width="98" height="20" x="450" y="160" style="fill:none;stroke:black;"/>
   <text width="98" height="20" x="455" y="174" style="fill:black;" font-family="Arial" font-size="16px">course_sn</text>
   <rect width="98" height="20" x="450" y="180" style="fill:none;stroke:black;"/>
   <text width="98" height="20" x="455" y="194" style="fill:black;" font-family="Arial" font-size="16px">course_fn</text>
   <rect width="98" height="20" x="450" y="200" style="fill:none;stroke:black;"/>
   <text width="98" height="20" x="455" y="214" style="fill:black;" font-family="Arial" font-size="16px">posting_date</text>
   <rect width="146" height="20" x="130" y="40" style="fill:#007;stroke:black;"/>
   <text width="146" height="20" x="135" y="54" style="fill:#fff;" font-family="Arial" font-size="16px"> registration</text>
   <rect width="146" height="20" x="130" y="60" style="fill:#aea;stroke:black;"/>
   <text width="146" height="20" x="135" y="74" style="fill:black;" font-family="Arial" font-size="16px">id</text>
   <rect width="146" height="20" x="130" y="80" style="fill:none;stroke:black;"/>
   <text width="146" height="20" x="135" y="94" style="fill:black;" font-family="Arial" font-size="16px">roomno</text>
   <rect width="146" height="20" x="130" y="100" style="fill:none;stroke:black;"/>
   <text width="146" height="20" x="135" y="114" style="fill:black;" font-family="Arial" font-size="16px">seater</text>
   <rect width="146" height="20" x="130" y="120" style="fill:none;stroke:black;"/>
   <text width="146" height="20" x="135" y="134" style="fill:black;" font-family="Arial" font-size="16px">feespm</text>
   <rect width="146" height="20" x="130" y="140" style="fill:none;stroke:black;"/>
   <text width="146" height="20" x="135" y="154" style="fill:black;" font-family="Arial" font-size="16px">foodstatus</text>
   <rect width="146" height="20" x="130" y="160" style="fill:none;stroke:black;"/>
   <text width="146" height="20" x="135" y="174" style="fill:black;" font-family="Arial" font-size="16px">stayfrom</text>
   <rect width="146" height="20" x="130" y="180" style="fill:none;stroke:black;"/>
   <text width="146" height="20" x="135" y="194" style="fill:black;" font-family="Arial" font-size="16px">duration</text>
   <rect width="146" height="20" x="130" y="200" style="fill:none;stroke:black;"/>
   <text width="146" height="20" x="135" y="214" style="fill:black;" font-family="Arial" font-size="16px">course</text>
   <rect width="146" height="20" x="130" y="220" style="fill:none;stroke:black;"/>
   <text width="146" height="20" x="135" y="234" style="fill:black;" font-family="Arial" font-size="16px">regno</text>
   <rect width="146" height="20" x="130" y="240" style="fill:none;stroke:black;"/>
   <text width="146" height="20" x="135" y="254" style="fill:black;" font-family="Arial" font-size="16px">firstName</text>
   <rect width="146" height="20" x="130" y="260" style="fill:none;stroke:black;"/>
   <text width="146" height="20" x="135" y="274" style="fill:black;" font-family="Arial" font-size="16px">middleName</text>
   <rect width="146" height="20" x="130" y="280" style="fill:none;stroke:black;"/>
   <text width="146" height="20" x="135" y="294" style="fill:black;" font-family="Arial" font-size="16px">lastName</text>
   <rect width="146" height="20" x="130" y="300" style="fill:none;stroke:black;"/>
   <text width="146" height="20" x="135" y="314" style="fill:black;" font-family="Arial" font-size="16px">gender</text>
   <rect width="146" height="20" x="130" y="320" style="fill:none;stroke:black;"/>
   <text width="146" height="20" x="135" y="334" style="fill:black;" font-family="Arial" font-size="16px">contactno</text>
   <rect width="146" height="20" x="130" y="340" style="fill:none;stroke:black;"/>
   <text width="146" height="20" x="135" y="354" style="fill:black;" font-family="Arial" font-size="16px">emailid</text>
   <rect width="146" height="20" x="130" y="360" style="fill:none;stroke:black;"/>
   <text width="146" height="20" x="135" y="374" style="fill:black;" font-family="Arial" font-size="16px">egycontactno</text>
   <rect width="146" height="20" x="130" y="380" style="fill:none;stroke:black;"/>
   <text width="146" height="20" x="135" y="394" style="fill:black;" font-family="Arial" font-size="16px">guardianName</text>
   <rect width="146" height="20" x="130" y="400" style="fill:none;stroke:black;"/>
   <text width="146" height="20" x="135" y="414" style="fill:black;" font-family="Arial" font-size="16px">guardianRelation</text>
   <rect width="146" height="20" x="130" y="420" style="fill:none;stroke:black;"/>
   <text width="146" height="20" x="135" y="434" style="fill:black;" font-family="Arial" font-size="16px">guardianContactno</text>
   <rect width="146" height="20" x="130" y="440" style="fill:none;stroke:black;"/>
   <text width="146" height="20" x="135" y="454" style="fill:black;" font-family="Arial" font-size="16px">corresAddress</text>
   <rect width="146" height="20" x="130" y="460" style="fill:none;stroke:black;"/>
   <text width="146" height="20" x="135" y="474" style="fill:black;" font-family="Arial" font-size="16px">corresCIty</text>
   <rect width="146" height="20" x="130" y="480" style="fill:none;stroke:black;"/>
   <text width="146" height="20" x="135" y="494" style="fill:black;" font-family="Arial" font-size="16px">corresState</text>
   <rect width="146" height="20" x="130" y="500" style="fill:none;stroke:black;"/>
   <text width="146" height="20" x="135" y="514" style="fill:black;" font-family="Arial" font-size="16px">corresPincode</text>
   <rect width="146" height="20" x="130" y="520" style="fill:none;stroke:black;"/>
   <text width="146" height="20" x="135" y="534" style="fill:black;" font-family="Arial" font-size="16px">pmntAddress</text>
   <rect width="146" height="20" x="130" y="540" style="fill:none;stroke:black;"/>
   <text width="146" height="20" x="135" y="554" style="fill:black;" font-family="Arial" font-size="16px">pmntCity</text>
   <rect width="146" height="20" x="130" y="560" style="fill:none;stroke:black;"/>
   <text width="146" height="20" x="135" y="574" style="fill:black;" font-family="Arial" font-size="16px">pmnatetState</text>
   <rect width="146" height="20" x="130" y="580" style="fill:none;stroke:black;"/>
   <text width="146" height="20" x="135" y="594" style="fill:black;" font-family="Arial" font-size="16px">pmntPincode</text>
   <rect width="146" height="20" x="130" y="600" style="fill:none;stroke:black;"/>
   <text width="146" height="20" x="135" y="614" style="fill:black;" font-family="Arial" font-size="16px">postingDate</text>
   <rect width="146" height="20" x="130" y="620" style="fill:none;stroke:black;"/>
   <text width="146" height="20" x="135" y="634" style="fill:black;" font-family="Arial" font-size="16px">updationDate</text>
   <rect width="98" height="20" x="900" y="420" style="fill:#007;stroke:black;"/>
   <text width="98" height="20" x="905" y="434" style="fill:#fff;" font-family="Arial" font-size="16px"> rooms</text>
   <rect width="98" height="20" x="900" y="440" style="fill:#aea;stroke:black;"/>
   <text width="98" height="20" x="905" y="454" style="fill:black;" font-family="Arial" font-size="16px">id</text>
   <rect width="98" height="20" x="900" y="460" style="fill:none;stroke:black;"/>
   <text width="98" height="20" x="905" y="474" style="fill:black;" font-family="Arial" font-size="16px">seater</text>
   <rect width="98" height="20" x="900" y="480" style="fill:none;stroke:black;"/>
   <text width="98" height="20" x="905" y="494" style="fill:black;" font-family="Arial" font-size="16px">room_no</text>
   <rect width="98" height="20" x="900" y="500" style="fill:none;stroke:black;"/>
   <text width="98" height="20" x="905" y="514" style="fill:black;" font-family="Arial" font-size="16px">fees</text>
   <rect width="98" height="20" x="900" y="520" style="fill:none;stroke:black;"/>
   <text width="98" height="20" x="905" y="534" style="fill:black;" font-family="Arial" font-size="16px">posting_date</text>
   <rect width="54" height="20" x="450" y="590" style="fill:#007;stroke:black;"/>
   <text width="54" height="20" x="455" y="604" style="fill:#fff;" font-family="Arial" font-size="16px"> states</text>
   <rect width="54" height="20" x="450" y="610" style="fill:#aea;stroke:black;"/>
   <text width="54" height="20" x="455" y="624" style="fill:black;" font-family="Arial" font-size="16px">id</text>
   <rect width="54" height="20" x="450" y="630" style="fill:none;stroke:black;"/>
   <text width="54" height="20" x="455" y="644" style="fill:black;" font-family="Arial" font-size="16px">State</text>
   <rect width="81" height="20" x="450" y="330" style="fill:#007;stroke:black;"/>
   <text width="81" height="20" x="455" y="344" style="fill:#fff;" font-family="Arial" font-size="16px"> userlog</text>
   <rect width="81" height="20" x="450" y="350" style="fill:#aea;stroke:black;"/>
   <text width="81" height="20" x="455" y="364" style="fill:black;" font-family="Arial" font-size="16px">id</text>
   <rect width="81" height="20" x="450" y="370" style="fill:none;stroke:black;"/>
   <text width="81" height="20" x="455" y="384" style="fill:black;" font-family="Arial" font-size="16px">userId</text>
   <rect width="81" height="20" x="450" y="390" style="fill:none;stroke:black;"/>
   <text width="81" height="20" x="455" y="404" style="fill:black;" font-family="Arial" font-size="16px">userEmail</text>
   <rect width="81" height="20" x="450" y="410" style="fill:none;stroke:black;"/>
   <text width="81" height="20" x="455" y="424" style="fill:black;" font-family="Arial" font-size="16px">userIp</text>
   <rect width="81" height="20" x="450" y="430" style="fill:none;stroke:black;"/>
   <text width="81" height="20" x="455" y="444" style="fill:black;" font-family="Arial" font-size="16px">city</text>
   <rect width="81" height="20" x="450" y="450" style="fill:none;stroke:black;"/>
   <text width="81" height="20" x="455" y="464" style="fill:black;" font-family="Arial" font-size="16px">country</text>
   <rect width="81" height="20" x="450" y="470" style="fill:none;stroke:black;"/>
   <text width="81" height="20" x="455" y="484" style="fill:black;" font-family="Arial" font-size="16px">loginTime</text>
   <rect width="121" height="20" x="670" y="350" style="fill:#007;stroke:black;"/>
   <text width="121" height="20" x="675" y="364" style="fill:#fff;" font-family="Arial" font-size="16px"> userregistration</text>
   <rect width="121" height="20" x="670" y="370" style="fill:#aea;stroke:black;"/>
   <text width="121" height="20" x="675" y="384" style="fill:black;" font-family="Arial" font-size="16px">id</text>
   <rect width="121" height="20" x="670" y="390" style="fill:none;stroke:black;"/>
   <text width="121" height="20" x="675" y="404" style="fill:black;" font-family="Arial" font-size="16px">regNo</text>
   <rect width="121" height="20" x="670" y="410" style="fill:none;stroke:black;"/>
   <text width="121" height="20" x="675" y="424" style="fill:black;" font-family="Arial" font-size="16px">firstName</text>
   <rect width="121" height="20" x="670" y="430" style="fill:none;stroke:black;"/>
   <text width="121" height="20" x="675" y="444" style="fill:black;" font-family="Arial" font-size="16px">middleName</text>
   <rect width="121" height="20" x="670" y="450" style="fill:none;stroke:black;"/>
   <text width="121" height="20" x="675" y="464" style="fill:black;" font-family="Arial" font-size="16px">lastName</text>
   <rect width="121" height="20" x="670" y="470" style="fill:none;stroke:black;"/>
   <text width="121" height="20" x="675" y="484" style="fill:black;" font-family="Arial" font-size="16px">gender</text>
   <rect width="121" height="20" x="670" y="490" style="fill:none;stroke:black;"/>
   <text width="121" height="20" x="675" y="504" style="fill:black;" font-family="Arial" font-size="16px">contactNo</text>
   <rect width="121" height="20" x="670" y="510" style="fill:none;stroke:black;"/>
   <text width="121" height="20" x="675" y="524" style="fill:black;" font-family="Arial" font-size="16px">email</text>
   <rect width="121" height="20" x="670" y="530" style="fill:none;stroke:black;"/>
   <text width="121" height="20" x="675" y="544" style="fill:black;" font-family="Arial" font-size="16px">password</text>
   <rect width="121" height="20" x="670" y="550" style="fill:none;stroke:black;"/>
   <text width="121" height="20" x="675" y="564" style="fill:black;" font-family="Arial" font-size="16px">regDate</text>
   <rect width="121" height="20" x="670" y="570" style="fill:none;stroke:black;"/>
   <text width="121" height="20" x="675" y="584" style="fill:black;" font-family="Arial" font-size="16px">updationDate</text>
   <rect width="121" height="20" x="670" y="590" style="fill:none;stroke:black;"/>
   <text width="121" height="20" x="675" y="604" style="fill:black;" font-family="Arial" font-size="16px">passUdateDate</text>
</svg>
